<!-- react.svg -->
<svg xmlns="http://www.w3.org/2000/svg" viewBox="0 0 841.9 595.3">
  <g fill="#61DAFB">
    <circle cx="420.9" cy="296.5" r="45.7"/>
    <path d="M520.5 78.1c-58.3 0-112 13.6-159.6 36.9-47.6-23.3-101.3-36.9-159.6-36.9-80.1 0-152.4 25.7-210.6 69.2 3.6 6.9 7.4 13.6 11.4 20.2 49.5 83.5 118.2 144.8 192.5 182.2-21.6 42.5-33.6 90.2-33.6 139.9 0 16.6 1.3 32.9 3.9 48.8 76.3-12.4 148.1-43.7 211.9-92.8 63.8 49.1 135.6 80.4 211.9 92.8 2.6-15.9 3.9-32.2 3.9-48.8 0-49.7-12-97.4-33.6-139.9 74.3-37.4 143-98.7 192.5-182.2 4-6.6 7.8-13.3 11.4-20.2-58.2-43.5-130.5-69.2-210.6-69.2zM420.9 167.7c72.1 0 137.1 12.8 190.6 36.3-24.4 39.5-56.2 75.5-93.2 106.7-29.9-34.3-67.1-62.1-107.4-82.3-40.3 20.2-77.5 48-107.4 82.3-37-31.2-68.8-67.2-93.2-106.7 53.5-23.5 118.5-36.3 190.6-36.3zm-217.9 59.5c19.7 32.3 45.1 61.8 75.2 87.5-32.2 37.5-55.4 82.6-66.8 130.4-57.5-34.9-107.1-87.2-143.1-151.2 37.1-23.9 79.5-43.5 124.7-56.7zm435.8 0c45.2 13.2 87.6 32.8 124.7 56.7-36 64-85.6 116.3-143.1 151.2-11.4-47.8-34.6-92.9-66.8-130.4 30.1-25.7 55.5-55.2 75.2-87.5zm-217.9 73.6c33.5 0 64.6 16.1 91.8 44.7 23.3 24.3 41.8 54.3 54.1 87.9-47.5 30.9-101.2 47.7-155.9 47.7s-108.4-16.8-155.9-47.7c12.3-33.6 30.8-63.6 54.1-87.9 27.2-28.6 58.3-44.7 91.8-44.7z"/>
  </g>
</svg>
